<svg width="48" height="48" viewBox="0 0 48 48" fill="none" xmlns="http://www.w3.org/2000/svg">
<mask id="path-1-inside-1" fill="white">
<path fill-rule="evenodd" clip-rule="evenodd" d="M17.4881 6C16.6048 6 15.8262 6.57934 15.5724 7.4253L14.5 11H8C3.58172 11 0 14.5817 0 19V33C0 37.4183 3.58172 41 8 41H40C44.4183 41 48 37.4183 48 33V19C48 14.5817 44.4183 11 40 11H33.75L32.8787 7.51493C32.6561 6.62459 31.8562 6 30.9384 6H17.4881Z"/>
</mask>
<path d="M15.5724 7.4253L12.6989 6.56326V6.56326L15.5724 7.4253ZM14.5 11V14H16.7321L17.3735 11.862L14.5 11ZM33.75 11L30.8396 11.7276L31.4077 14H33.75V11ZM32.8787 7.51493L29.9683 8.24254V8.24254L32.8787 7.51493ZM18.4459 8.28735C18.319 8.71033 17.9297 9 17.4881 9V3C15.28 3 13.3334 4.44834 12.6989 6.56326L18.4459 8.28735ZM17.3735 11.862L18.4459 8.28735L12.6989 6.56326L11.6265 10.138L17.3735 11.862ZM8 14H14.5V8H8V14ZM3 19C3 16.2386 5.23858 14 8 14V8C1.92487 8 -3 12.9249 -3 19H3ZM3 33V19H-3V33H3ZM8 38C5.23858 38 3 35.7614 3 33H-3C-3 39.0751 1.92487 44 8 44V38ZM40 38H8V44H40V38ZM45 33C45 35.7614 42.7614 38 40 38V44C46.0751 44 51 39.0751 51 33H45ZM45 19V33H51V19H45ZM40 14C42.7614 14 45 16.2386 45 19H51C51 12.9249 46.0751 8 40 8V14ZM33.75 14H40V8H33.75V14ZM29.9683 8.24254L30.8396 11.7276L36.6604 10.2724L35.7892 6.78732L29.9683 8.24254ZM30.9384 9C30.4796 9 30.0796 8.6877 29.9683 8.24254L35.7892 6.78732C35.2327 4.56149 33.2328 3 30.9384 3V9ZM17.4881 9H30.9384V3H17.4881V9Z" fill="#152C5B" mask="url(#path-1-inside-1)"/>
<circle cx="24" cy="26" r="6.5" stroke="#FF498B" stroke-width="3"/>
<path d="M40 18L35 18" stroke="#152C5B" stroke-width="3" stroke-linecap="round"/>
</svg>
