<svg width="40" height="48" viewBox="0 0 40 48" fill="none" xmlns="http://www.w3.org/2000/svg">
<path d="M30.5 41.5C30.5 41.8609 30.3262 42.3502 29.7036 42.9483C29.0768 43.5502 28.0908 44.1615 26.7491 44.7065C24.0735 45.7935 20.2738 46.5 16 46.5C11.7262 46.5 7.92649 45.7935 5.25086 44.7065C3.90921 44.1615 2.92315 43.5502 2.29643 42.9483C1.67376 42.3502 1.5 41.8609 1.5 41.5C1.5 41.1391 1.67376 40.6498 2.29643 40.0517C2.92315 39.4498 3.90921 38.8385 5.25086 38.2935C7.92649 37.2065 11.7262 36.5 16 36.5C20.2738 36.5 24.0735 37.2065 26.7491 38.2935C28.0908 38.8385 29.0768 39.4498 29.7036 40.0517C30.3262 40.6498 30.5 41.1391 30.5 41.5Z" stroke="#152C5B" stroke-width="3"/>
<path d="M28.5 9.25C28.5 10.3505 28.142 12.865 27.434 16.126C26.7358 19.3415 25.7253 23.1567 24.4799 26.8063C23.2289 30.4721 21.7661 33.895 20.185 36.3723C19.394 37.6117 18.6128 38.5511 17.8667 39.1669C17.1235 39.7803 16.5067 40 16 40C15.4933 40 14.8765 39.7803 14.1333 39.1669C13.3872 38.5511 12.606 37.6117 11.815 36.3723C10.2339 33.895 8.77112 30.4721 7.52012 26.8063C6.27467 23.1567 5.26419 19.3415 4.56604 16.126C3.85801 12.865 3.5 10.3505 3.5 9.25C3.5 7.35958 4.66021 5.45872 6.92739 3.96077C9.18282 2.47057 12.3862 1.5 16 1.5C19.6138 1.5 22.8172 2.47057 25.0726 3.96077C27.3398 5.45872 28.5 7.35958 28.5 9.25Z" fill="white" stroke="#152C5B" stroke-width="3"/>
<circle cx="16" cy="13" r="4.5" stroke="#FF498B" stroke-width="3"/>
</svg>
